<?xml version="1.0" encoding="utf-8"?>
<!-- Generator: Adobe Illustrator 25.2.3, SVG Export Plug-In . SVG Version: 6.00 Build 0)  -->
<svg version="1.1" id="Ebene_1" xmlns="http://www.w3.org/2000/svg" xmlns:xlink="http://www.w3.org/1999/xlink" x="0px" y="0px"
	 viewBox="0 0 116 49" style="enable-background:new 0 0 116 49;" xml:space="preserve">
<style type="text/css">
	.st0{fill:#FFFFFF;}
</style>
<g>
	<path class="st0" d="M5.9,10.3H17c2.5,0,4.4,0.6,5.7,1.9c1.3,1.2,2,3,2,5.4v13.9c0,2.2-0.6,4-1.8,5.2c-1.6,1.6-3.3,2.3-5.3,2.3H8.2
		c-2,0-3.7-0.8-5-2.3c-1.4-1.6-2.1-3.5-2.1-5.7V0.7h4.8V10.3z M5.9,30.7c0,1,0.3,1.9,0.8,2.5c0.6,0.6,1.3,1,2.3,1h8.3
		c0.7,0,1.4-0.3,1.9-0.8c0.5-0.6,0.7-1.3,0.7-2.2V18.3c0-2.2-1-3.2-3.1-3.2H9c-2,0-3.1,1-3.1,3.1V30.7z"/>
	<path class="st0" d="M28,10.3h5.1l8.6,23.3l8.7-23.3l5.1,0l-9.8,26.3c-0.4,1.1-0.9,1.9-1.5,2.3c-0.6,0.4-1.4,0.6-2.5,0.6
		c-1.1,0-1.9-0.2-2.5-0.6c-0.6-0.4-1.1-1.2-1.5-2.3L28,10.3z"/>
	<path class="st0" d="M58.9,48.2V17.6c0-2.4,0.6-4.2,1.9-5.4c1.3-1.3,3.1-1.9,5.5-1.9h9c2.4,0,4.2,0.6,5.5,1.8c1.3,1.2,2,2.9,2,5.2
		V31c0,2.3-0.7,4.1-2.1,5.7c-1.4,1.5-3.2,2.3-5.2,2.3H63.6v9.3H58.9z M63.6,30.9c0,0.9,0.2,1.7,0.7,2.3c0.5,0.6,1.1,1,1.9,1h9.1
		c0.8,0,1.5-0.3,2-0.8c0.5-0.5,0.7-1.2,0.7-2.1V17.7c0-1.8-0.8-2.7-2.5-2.7H67c-2.3,0-3.4,1-3.4,2.9V30.9z"/>
	<path class="st0" d="M89.5,38.9V0.7h4.8v38.2H89.5z M107.6,38.9L95.6,26.6c-0.7-0.8-1.1-1.7-1.1-2.4c0-0.6,0.1-1.1,0.2-1.5
		c0.2-0.4,0.4-0.8,0.9-1.2l11.2-11.2l6.7,0L99.8,24.1l14.3,14.8L107.6,38.9z"/>
</g>
</svg>
